<svg width="1024" height="1024" viewBox="0 0 1024 1024" fill="none" xmlns="http://www.w3.org/2000/svg">
<g clip-path="url(#clip0_93_149)">
<rect width="1024" height="1024" fill="#2E2C92"/>
<path d="M1024 0H0V1024H1024V0Z" fill="url(#paint0_linear_93_149)"/>
<path d="M836 636.971C836 789.975 689.368 914 508.5 914C327.632 914 181 789.965 181 636.971C181 460.492 367.574 261.601 459.078 174.669C487.094 148.052 529.905 148.052 557.922 174.669C649.426 261.601 836 460.492 836 636.971Z" fill="white"/>
<path d="M324.001 667.414C312.956 667.414 303.814 676.45 305.953 687.287C308.339 699.378 312.899 711.234 319.55 722.562C329.815 740.046 344.86 755.933 363.828 769.315C382.795 782.697 405.312 793.312 430.094 800.554C454.876 807.796 481.437 811.523 508.261 811.523C535.085 811.523 561.646 807.796 586.428 800.554C611.21 793.312 633.727 782.697 652.694 769.315C671.662 755.933 686.707 740.046 696.972 722.562C703.623 711.234 708.183 699.378 710.569 687.287C712.708 676.45 703.566 667.414 692.521 667.414L508.261 667.414L324.001 667.414Z" fill="#277B48"/>
<mask id="mask0_93_149" style="mask-type:alpha" maskUnits="userSpaceOnUse" x="303" y="667" width="410" height="145">
<path d="M303.999 667.413C303.999 686.338 309.283 705.077 319.548 722.561C329.813 740.045 344.858 755.932 363.826 769.314C382.793 782.696 405.31 793.311 430.092 800.553C454.874 807.795 481.435 811.522 508.259 811.522C535.083 811.522 561.644 807.795 586.426 800.553C611.208 793.311 633.725 782.696 652.692 769.314C671.66 755.932 686.705 740.045 696.97 722.561C707.235 705.077 712.519 686.338 712.519 667.413L508.259 667.413L303.999 667.413Z" fill="#2E2C92"/>
</mask>
<g mask="url(#mask0_93_149)">
<ellipse cx="515.779" cy="798.034" rx="116.541" ry="50.125" fill="#F48A8A"/>
</g>
<g clip-path="url(#clip1_93_149)">
<mask id="mask1_93_149" style="mask-type:luminance" maskUnits="userSpaceOnUse" x="-493" y="-1017" width="2188" height="2188">
<path d="M1614.32 -1016.08H-412.054C-456.236 -1016.08 -492.054 -980.264 -492.054 -936.081V1090.3C-492.054 1134.48 -456.236 1170.3 -412.054 1170.3H1614.32C1658.51 1170.3 1694.32 1134.48 1694.32 1090.3V-936.081C1694.32 -980.264 1658.51 -1016.08 1614.32 -1016.08Z" fill="white"/>
</mask>
<g mask="url(#mask1_93_149)">
<path d="M836 637.194C836 790.121 689.259 914.081 508.257 914.081C327.255 914.081 180.514 790.111 180.514 637.194C180.514 460.76 367.324 261.915 458.87 175.064C486.878 148.492 529.636 148.492 557.644 175.064C649.19 261.915 836 460.76 836 637.194Z" fill="#EDEDED"/>
</g>
</g>
<rect x="303" y="453" width="74" height="99" rx="37" fill="black"/>
<rect x="642" y="453" width="74" height="100" rx="37" fill="black"/>
</g>
<defs>
<linearGradient id="paint0_linear_93_149" x1="512" y1="0" x2="512" y2="1024" gradientUnits="userSpaceOnUse">
<stop stop-color="#6FCF97"/>
<stop offset="1" stop-color="#4A8A65"/>
</linearGradient>
<clipPath id="clip0_93_149">
<rect width="1024" height="1024" fill="white"/>
</clipPath>
<clipPath id="clip1_93_149">
<path d="M125 29C125 -15.1828 160.817 -51 205 -51H756C800.183 -51 836 -15.1828 836 29V502H125V29Z" fill="white"/>
</clipPath>
</defs>
</svg>
